<svg width="702" height="244" viewBox="0 0 702 244" fill="none" xmlns="http://www.w3.org/2000/svg">
<g clip-path="url(#clip0_47_36)">
<path fill-rule="evenodd" clip-rule="evenodd" d="M127.833 20.5C78.2208 20.5 38 60.7208 38 110.333C38 159.946 78.2208 200.167 127.833 200.167C177.446 200.167 217.667 159.946 217.667 110.333C217.667 60.7208 177.446 20.5 127.833 20.5ZM123.75 61.3333C121.584 61.3333 119.507 62.1938 117.975 63.7253C116.444 65.2568 115.583 67.3341 115.583 69.5C115.583 71.6659 116.444 73.7432 117.975 75.2747C119.507 76.8063 121.584 77.6667 123.75 77.6667H127.833C129.999 77.6667 132.076 76.8063 133.608 75.2747C135.14 73.7432 136 71.6659 136 69.5C136 67.3341 135.14 65.2568 133.608 63.7253C132.076 62.1938 129.999 61.3333 127.833 61.3333H123.75ZM111.5 94C109.334 94 107.257 94.8604 105.725 96.392C104.194 97.9235 103.333 100.001 103.333 102.167C103.333 104.333 104.194 106.41 105.725 107.941C107.257 109.473 109.334 110.333 111.5 110.333H119.667V134.833H111.5C109.334 134.833 107.257 135.694 105.725 137.225C104.194 138.757 103.333 140.834 103.333 143C103.333 145.166 104.194 147.243 105.725 148.775C107.257 150.306 109.334 151.167 111.5 151.167H144.167C146.333 151.167 148.41 150.306 149.941 148.775C151.473 147.243 152.333 145.166 152.333 143C152.333 140.834 151.473 138.757 149.941 137.225C148.41 135.694 146.333 134.833 144.167 134.833H136V102.167C136 100.001 135.14 97.9235 133.608 96.392C132.076 94.8604 129.999 94 127.833 94H111.5Z" fill="url(#paint0_linear_47_36)"/>
<path d="M253.81 98V21H267.01V98H253.81ZM282.052 98V42.56H293.712L294.702 51.8C296.388 48.5733 298.808 46.0067 301.962 44.1C305.115 42.1933 308.855 41.24 313.182 41.24C317.655 41.24 321.468 42.1933 324.622 44.1C327.775 45.9333 330.195 48.6467 331.882 52.24C333.642 55.8333 334.522 60.3067 334.522 65.66V98H321.322V66.87C321.322 62.25 320.295 58.6933 318.242 56.2C316.188 53.7067 313.145 52.46 309.112 52.46C306.472 52.46 304.088 53.0833 301.962 54.33C299.908 55.5767 298.258 57.41 297.012 59.83C295.838 62.1767 295.252 65.0367 295.252 68.41V98H282.052ZM351.188 98V36.51C351.188 32.2567 351.885 28.8467 353.278 26.28C354.745 23.64 356.835 21.7333 359.548 20.56C362.262 19.3867 365.488 18.8 369.228 18.8H375.828V30.02H371.208C368.788 30.02 367.028 30.5333 365.928 31.56C364.902 32.5133 364.388 34.2 364.388 36.62V98H351.188ZM343.268 53.67V42.56H376.928V53.67H343.268ZM411.993 99.32C406.713 99.32 401.947 98.11 397.693 95.69C393.513 93.1967 390.213 89.7867 387.793 85.46C385.447 81.06 384.273 76.0367 384.273 70.39C384.273 64.5967 385.483 59.5367 387.903 55.21C390.323 50.81 393.623 47.4 397.803 44.98C402.057 42.4867 406.823 41.24 412.103 41.24C417.383 41.24 422.113 42.4867 426.293 44.98C430.547 47.4 433.847 50.7733 436.193 55.1C438.613 59.4267 439.823 64.4867 439.823 70.28C439.823 76.0733 438.613 81.1333 436.193 85.46C433.773 89.7867 430.437 93.1967 426.183 95.69C422.003 98.11 417.273 99.32 411.993 99.32ZM411.993 87.99C414.633 87.99 417.017 87.33 419.143 86.01C421.343 84.69 423.103 82.71 424.423 80.07C425.743 77.43 426.403 74.1667 426.403 70.28C426.403 66.3933 425.743 63.1667 424.423 60.6C423.177 57.96 421.453 55.98 419.253 54.66C417.127 53.34 414.743 52.68 412.103 52.68C409.537 52.68 407.153 53.34 404.953 54.66C402.753 55.98 400.993 57.96 399.673 60.6C398.353 63.1667 397.693 66.3933 397.693 70.28C397.693 74.1667 398.353 77.43 399.673 80.07C400.993 82.71 402.717 84.69 404.843 86.01C407.043 87.33 409.427 87.99 411.993 87.99Z" fill="white"/>
<path d="M281.712 203.152C275.376 203.152 269.872 201.712 265.2 198.832C260.592 195.888 257.008 191.824 254.448 186.64C251.952 181.392 250.704 175.312 250.704 168.4C250.704 161.488 251.952 155.44 254.448 150.256C257.008 145.008 260.592 140.944 265.2 138.064C269.872 135.12 275.376 133.648 281.712 133.648C289.328 133.648 295.504 135.472 300.24 139.12C304.976 142.768 308.016 147.92 309.36 154.576H300.624C299.536 150.416 297.424 147.088 294.288 144.592C291.216 142.032 287.024 140.752 281.712 140.752C277.104 140.752 273.072 141.872 269.616 144.112C266.224 146.288 263.6 149.456 261.744 153.616C259.888 157.712 258.96 162.64 258.96 168.4C258.96 174.16 259.888 179.12 261.744 183.28C263.6 187.376 266.224 190.544 269.616 192.784C273.072 194.96 277.104 196.048 281.712 196.048C287.024 196.048 291.216 194.832 294.288 192.4C297.424 189.904 299.536 186.608 300.624 182.512H309.36C308.016 188.976 304.976 194.032 300.24 197.68C295.504 201.328 289.328 203.152 281.712 203.152ZM321.647 202V151.504H329.711V202H321.647ZM325.679 141.904C324.079 141.904 322.735 141.392 321.647 140.368C320.623 139.28 320.111 137.936 320.111 136.336C320.111 134.736 320.623 133.456 321.647 132.496C322.735 131.472 324.079 130.96 325.679 130.96C327.215 130.96 328.527 131.472 329.615 132.496C330.703 133.456 331.247 134.736 331.247 136.336C331.247 137.936 330.703 139.28 329.615 140.368C328.527 141.392 327.215 141.904 325.679 141.904ZM364.867 203.152C360.387 203.152 356.419 202 352.963 199.696C349.507 197.392 346.819 194.256 344.899 190.288C342.979 186.256 342.019 181.712 342.019 176.656C342.019 171.536 342.979 167.024 344.899 163.12C346.819 159.152 349.507 156.048 352.963 153.808C356.419 151.504 360.419 150.352 364.963 150.352C368.931 150.352 372.323 151.152 375.139 152.752C378.019 154.352 380.291 156.592 381.955 159.472V132.88H390.019V202H382.723L382.051 193.936C381.091 195.536 379.811 197.04 378.211 198.448C376.675 199.856 374.787 201.008 372.547 201.904C370.371 202.736 367.811 203.152 364.867 203.152ZM365.923 196.144C369.123 196.144 371.907 195.376 374.275 193.84C376.643 192.24 378.467 190 379.747 187.12C381.027 184.176 381.667 180.72 381.667 176.752C381.667 172.784 381.027 169.36 379.747 166.48C378.467 163.536 376.643 161.296 374.275 159.76C371.907 158.16 369.123 157.36 365.923 157.36C362.915 157.36 360.227 158.16 357.859 159.76C355.491 161.296 353.635 163.536 352.291 166.48C350.947 169.36 350.275 172.784 350.275 176.752C350.275 180.72 350.947 184.176 352.291 187.12C353.635 190 355.491 192.24 357.859 193.84C360.227 195.376 362.915 196.144 365.923 196.144ZM419.404 203.152C415.564 203.152 412.364 202.448 409.804 201.04C407.244 199.568 405.324 197.648 404.044 195.28C402.764 192.848 402.124 190.256 402.124 187.504C402.124 184.176 402.956 181.36 404.62 179.056C406.348 176.688 408.748 174.896 411.82 173.68C414.892 172.464 418.476 171.856 422.572 171.856H435.148C435.148 168.592 434.764 165.872 433.996 163.696C433.228 161.52 431.98 159.888 430.252 158.8C428.524 157.712 426.22 157.168 423.34 157.168C420.46 157.168 417.996 157.904 415.948 159.376C413.9 160.784 412.62 162.896 412.108 165.712H403.852C404.236 162.384 405.356 159.6 407.212 157.36C409.068 155.056 411.404 153.328 414.22 152.176C417.1 150.96 420.14 150.352 423.34 150.352C427.884 150.352 431.628 151.184 434.572 152.848C437.516 154.448 439.692 156.72 441.1 159.664C442.508 162.544 443.212 165.968 443.212 169.936V202H436.012L435.532 193.36C434.892 194.704 434.06 195.984 433.036 197.2C432.076 198.352 430.924 199.376 429.58 200.272C428.236 201.168 426.7 201.872 424.972 202.384C423.308 202.896 421.452 203.152 419.404 203.152ZM420.556 196.336C422.668 196.336 424.62 195.856 426.412 194.896C428.204 193.936 429.74 192.656 431.02 191.056C432.364 189.392 433.388 187.536 434.092 185.488C434.796 183.44 435.148 181.296 435.148 179.056V178.096H423.244C420.236 178.096 417.772 178.48 415.852 179.248C413.996 180.016 412.652 181.104 411.82 182.512C410.988 183.856 410.572 185.392 410.572 187.12C410.572 188.976 410.956 190.608 411.724 192.016C412.492 193.36 413.612 194.416 415.084 195.184C416.62 195.952 418.444 196.336 420.556 196.336ZM477.367 203.152C472.887 203.152 468.919 202 465.463 199.696C462.007 197.392 459.319 194.256 457.399 190.288C455.479 186.256 454.519 181.712 454.519 176.656C454.519 171.536 455.479 167.024 457.399 163.12C459.319 159.152 462.007 156.048 465.463 153.808C468.919 151.504 472.919 150.352 477.463 150.352C481.431 150.352 484.823 151.152 487.639 152.752C490.519 154.352 492.791 156.592 494.455 159.472V132.88H502.519V202H495.223L494.551 193.936C493.591 195.536 492.311 197.04 490.711 198.448C489.175 199.856 487.287 201.008 485.047 201.904C482.871 202.736 480.311 203.152 477.367 203.152ZM478.423 196.144C481.623 196.144 484.407 195.376 486.775 193.84C489.143 192.24 490.967 190 492.247 187.12C493.527 184.176 494.167 180.72 494.167 176.752C494.167 172.784 493.527 169.36 492.247 166.48C490.967 163.536 489.143 161.296 486.775 159.76C484.407 158.16 481.623 157.36 478.423 157.36C475.415 157.36 472.727 158.16 470.359 159.76C467.991 161.296 466.135 163.536 464.791 166.48C463.447 169.36 462.775 172.784 462.775 176.752C462.775 180.72 463.447 184.176 464.791 187.12C466.135 190 467.991 192.24 470.359 193.84C472.727 195.376 475.415 196.144 478.423 196.144ZM531.904 203.152C528.064 203.152 524.864 202.448 522.304 201.04C519.744 199.568 517.824 197.648 516.544 195.28C515.264 192.848 514.624 190.256 514.624 187.504C514.624 184.176 515.456 181.36 517.12 179.056C518.848 176.688 521.248 174.896 524.32 173.68C527.392 172.464 530.976 171.856 535.072 171.856H547.648C547.648 168.592 547.264 165.872 546.496 163.696C545.728 161.52 544.48 159.888 542.752 158.8C541.024 157.712 538.72 157.168 535.84 157.168C532.96 157.168 530.496 157.904 528.448 159.376C526.4 160.784 525.12 162.896 524.608 165.712H516.352C516.736 162.384 517.856 159.6 519.712 157.36C521.568 155.056 523.904 153.328 526.72 152.176C529.6 150.96 532.64 150.352 535.84 150.352C540.384 150.352 544.128 151.184 547.072 152.848C550.016 154.448 552.192 156.72 553.6 159.664C555.008 162.544 555.712 165.968 555.712 169.936V202H548.512L548.032 193.36C547.392 194.704 546.56 195.984 545.536 197.2C544.576 198.352 543.424 199.376 542.08 200.272C540.736 201.168 539.2 201.872 537.472 202.384C535.808 202.896 533.952 203.152 531.904 203.152ZM533.056 196.336C535.168 196.336 537.12 195.856 538.912 194.896C540.704 193.936 542.24 192.656 543.52 191.056C544.864 189.392 545.888 187.536 546.592 185.488C547.296 183.44 547.648 181.296 547.648 179.056V178.096H535.744C532.736 178.096 530.272 178.48 528.352 179.248C526.496 180.016 525.152 181.104 524.32 182.512C523.488 183.856 523.072 185.392 523.072 187.12C523.072 188.976 523.456 190.608 524.224 192.016C524.992 193.36 526.112 194.416 527.584 195.184C529.12 195.952 530.944 196.336 533.056 196.336ZM540.544 145.168C538.816 145.168 537.376 144.784 536.224 144.016C535.072 143.248 533.984 142.512 532.96 141.808C532 141.04 530.848 140.656 529.504 140.656C528.48 140.656 527.584 141.008 526.816 141.712C526.112 142.416 525.664 143.504 525.472 144.976H520.768C521.216 141.776 522.24 139.376 523.84 137.776C525.504 136.112 527.52 135.28 529.888 135.28C531.616 135.28 533.024 135.664 534.112 136.432C535.264 137.136 536.352 137.872 537.376 138.64C538.4 139.408 539.584 139.792 540.928 139.792C542.016 139.792 542.912 139.44 543.616 138.736C544.384 137.968 544.864 136.88 545.056 135.472H549.76C549.376 138.608 548.352 141.008 546.688 142.672C545.024 144.336 542.976 145.168 540.544 145.168ZM590.731 203.152C586.059 203.152 581.931 202.064 578.347 199.888C574.763 197.712 571.979 194.64 569.995 190.672C568.011 186.704 567.019 182.064 567.019 176.752C567.019 171.376 568.011 166.736 569.995 162.832C572.043 158.864 574.859 155.792 578.443 153.616C582.091 151.44 586.251 150.352 590.923 150.352C595.659 150.352 599.787 151.44 603.307 153.616C606.891 155.792 609.675 158.864 611.659 162.832C613.643 166.736 614.635 171.376 614.635 176.752C614.635 182.064 613.611 186.704 611.563 190.672C609.579 194.64 606.795 197.712 603.211 199.888C599.627 202.064 595.467 203.152 590.731 203.152ZM590.731 196.24C593.675 196.24 596.331 195.536 598.699 194.128C601.067 192.656 602.923 190.48 604.267 187.6C605.675 184.656 606.379 181.04 606.379 176.752C606.379 172.4 605.707 168.784 604.363 165.904C603.019 163.024 601.163 160.88 598.795 159.472C596.491 158 593.867 157.264 590.923 157.264C588.043 157.264 585.419 158 583.051 159.472C580.683 160.88 578.795 163.024 577.387 165.904C575.979 168.784 575.275 172.4 575.275 176.752C575.275 181.04 575.947 184.656 577.291 187.6C578.699 190.48 580.555 192.656 582.859 194.128C585.227 195.536 587.851 196.24 590.731 196.24Z" fill="white"/>
</g>
<defs>
<linearGradient id="paint0_linear_47_36" x1="217.993" y1="166.389" x2="-6.62269" y2="120.133" gradientUnits="userSpaceOnUse">
<stop offset="0.151319" stop-color="#045DD0"/>
<stop offset="0.866" stop-color="#00DD9E"/>
</linearGradient>
<clipPath id="clip0_47_36">
<rect width="702" height="244" fill="white"/>
</clipPath>
</defs>
</svg>
