<svg width="590" height="232" viewBox="0 0 590 232" fill="none" xmlns="http://www.w3.org/2000/svg">
<path fill-rule="evenodd" clip-rule="evenodd" d="M97.8333 20.5C48.2208 20.5 8 60.7208 8 110.333C8 159.946 48.2208 200.167 97.8333 200.167C147.446 200.167 187.667 159.946 187.667 110.333C187.667 60.7208 147.446 20.5 97.8333 20.5ZM93.75 61.3333C91.5841 61.3333 89.5068 62.1938 87.9753 63.7253C86.4438 65.2568 85.5833 67.3341 85.5833 69.5C85.5833 71.6659 86.4438 73.7432 87.9753 75.2747C89.5068 76.8063 91.5841 77.6667 93.75 77.6667H97.8333C99.9993 77.6667 102.076 76.8063 103.608 75.2747C105.14 73.7432 106 71.6659 106 69.5C106 67.3341 105.14 65.2568 103.608 63.7253C102.076 62.1938 99.9993 61.3333 97.8333 61.3333H93.75ZM81.5 94C79.3341 94 77.2568 94.8604 75.7253 96.392C74.1938 97.9235 73.3333 100.001 73.3333 102.167C73.3333 104.333 74.1938 106.41 75.7253 107.941C77.2568 109.473 79.3341 110.333 81.5 110.333H89.6667V134.833H81.5C79.3341 134.833 77.2568 135.694 75.7253 137.225C74.1938 138.757 73.3333 140.834 73.3333 143C73.3333 145.166 74.1938 147.243 75.7253 148.775C77.2568 150.306 79.3341 151.167 81.5 151.167H114.167C116.333 151.167 118.41 150.306 119.941 148.775C121.473 147.243 122.333 145.166 122.333 143C122.333 140.834 121.473 138.757 119.941 137.225C118.41 135.694 116.333 134.833 114.167 134.833H106V102.167C106 100.001 105.14 97.9235 103.608 96.392C102.076 94.8604 99.9993 94 97.8333 94H81.5Z" fill="white"/>
<path d="M223.81 98V21H237.01V98H223.81ZM252.052 98V42.56H263.712L264.702 51.8C266.388 48.5733 268.808 46.0067 271.962 44.1C275.115 42.1933 278.855 41.24 283.182 41.24C287.655 41.24 291.468 42.1933 294.622 44.1C297.775 45.9333 300.195 48.6467 301.882 52.24C303.642 55.8333 304.522 60.3067 304.522 65.66V98H291.322V66.87C291.322 62.25 290.295 58.6933 288.242 56.2C286.188 53.7067 283.145 52.46 279.112 52.46C276.472 52.46 274.088 53.0833 271.962 54.33C269.908 55.5767 268.258 57.41 267.012 59.83C265.838 62.1767 265.252 65.0367 265.252 68.41V98H252.052ZM321.188 98V36.51C321.188 32.2567 321.885 28.8467 323.278 26.28C324.745 23.64 326.835 21.7333 329.548 20.56C332.262 19.3867 335.488 18.8 339.228 18.8H345.828V30.02H341.208C338.788 30.02 337.028 30.5333 335.928 31.56C334.902 32.5133 334.388 34.2 334.388 36.62V98H321.188ZM313.268 53.67V42.56H346.928V53.67H313.268ZM381.993 99.32C376.713 99.32 371.947 98.11 367.693 95.69C363.513 93.1967 360.213 89.7867 357.793 85.46C355.447 81.06 354.273 76.0367 354.273 70.39C354.273 64.5967 355.483 59.5367 357.903 55.21C360.323 50.81 363.623 47.4 367.803 44.98C372.057 42.4867 376.823 41.24 382.103 41.24C387.383 41.24 392.113 42.4867 396.293 44.98C400.547 47.4 403.847 50.7733 406.193 55.1C408.613 59.4267 409.823 64.4867 409.823 70.28C409.823 76.0733 408.613 81.1333 406.193 85.46C403.773 89.7867 400.437 93.1967 396.183 95.69C392.003 98.11 387.273 99.32 381.993 99.32ZM381.993 87.99C384.633 87.99 387.017 87.33 389.143 86.01C391.343 84.69 393.103 82.71 394.423 80.07C395.743 77.43 396.403 74.1667 396.403 70.28C396.403 66.3933 395.743 63.1667 394.423 60.6C393.177 57.96 391.453 55.98 389.253 54.66C387.127 53.34 384.743 52.68 382.103 52.68C379.537 52.68 377.153 53.34 374.953 54.66C372.753 55.98 370.993 57.96 369.673 60.6C368.353 63.1667 367.693 66.3933 367.693 70.28C367.693 74.1667 368.353 77.43 369.673 80.07C370.993 82.71 372.717 84.69 374.843 86.01C377.043 87.33 379.427 87.99 381.993 87.99Z" fill="white"/>
<path d="M251.712 203.152C245.376 203.152 239.872 201.712 235.2 198.832C230.592 195.888 227.008 191.824 224.448 186.64C221.952 181.392 220.704 175.312 220.704 168.4C220.704 161.488 221.952 155.44 224.448 150.256C227.008 145.008 230.592 140.944 235.2 138.064C239.872 135.12 245.376 133.648 251.712 133.648C259.328 133.648 265.504 135.472 270.24 139.12C274.976 142.768 278.016 147.92 279.36 154.576H270.624C269.536 150.416 267.424 147.088 264.288 144.592C261.216 142.032 257.024 140.752 251.712 140.752C247.104 140.752 243.072 141.872 239.616 144.112C236.224 146.288 233.6 149.456 231.744 153.616C229.888 157.712 228.96 162.64 228.96 168.4C228.96 174.16 229.888 179.12 231.744 183.28C233.6 187.376 236.224 190.544 239.616 192.784C243.072 194.96 247.104 196.048 251.712 196.048C257.024 196.048 261.216 194.832 264.288 192.4C267.424 189.904 269.536 186.608 270.624 182.512H279.36C278.016 188.976 274.976 194.032 270.24 197.68C265.504 201.328 259.328 203.152 251.712 203.152ZM291.647 202V151.504H299.711V202H291.647ZM295.679 141.904C294.079 141.904 292.735 141.392 291.647 140.368C290.623 139.28 290.111 137.936 290.111 136.336C290.111 134.736 290.623 133.456 291.647 132.496C292.735 131.472 294.079 130.96 295.679 130.96C297.215 130.96 298.527 131.472 299.615 132.496C300.703 133.456 301.247 134.736 301.247 136.336C301.247 137.936 300.703 139.28 299.615 140.368C298.527 141.392 297.215 141.904 295.679 141.904ZM334.867 203.152C330.387 203.152 326.419 202 322.963 199.696C319.507 197.392 316.819 194.256 314.899 190.288C312.979 186.256 312.019 181.712 312.019 176.656C312.019 171.536 312.979 167.024 314.899 163.12C316.819 159.152 319.507 156.048 322.963 153.808C326.419 151.504 330.419 150.352 334.963 150.352C338.931 150.352 342.323 151.152 345.139 152.752C348.019 154.352 350.291 156.592 351.955 159.472V132.88H360.019V202H352.723L352.051 193.936C351.091 195.536 349.811 197.04 348.211 198.448C346.675 199.856 344.787 201.008 342.547 201.904C340.371 202.736 337.811 203.152 334.867 203.152ZM335.923 196.144C339.123 196.144 341.907 195.376 344.275 193.84C346.643 192.24 348.467 190 349.747 187.12C351.027 184.176 351.667 180.72 351.667 176.752C351.667 172.784 351.027 169.36 349.747 166.48C348.467 163.536 346.643 161.296 344.275 159.76C341.907 158.16 339.123 157.36 335.923 157.36C332.915 157.36 330.227 158.16 327.859 159.76C325.491 161.296 323.635 163.536 322.291 166.48C320.947 169.36 320.275 172.784 320.275 176.752C320.275 180.72 320.947 184.176 322.291 187.12C323.635 190 325.491 192.24 327.859 193.84C330.227 195.376 332.915 196.144 335.923 196.144ZM389.404 203.152C385.564 203.152 382.364 202.448 379.804 201.04C377.244 199.568 375.324 197.648 374.044 195.28C372.764 192.848 372.124 190.256 372.124 187.504C372.124 184.176 372.956 181.36 374.62 179.056C376.348 176.688 378.748 174.896 381.82 173.68C384.892 172.464 388.476 171.856 392.572 171.856H405.148C405.148 168.592 404.764 165.872 403.996 163.696C403.228 161.52 401.98 159.888 400.252 158.8C398.524 157.712 396.22 157.168 393.34 157.168C390.46 157.168 387.996 157.904 385.948 159.376C383.9 160.784 382.62 162.896 382.108 165.712H373.852C374.236 162.384 375.356 159.6 377.212 157.36C379.068 155.056 381.404 153.328 384.22 152.176C387.1 150.96 390.14 150.352 393.34 150.352C397.884 150.352 401.628 151.184 404.572 152.848C407.516 154.448 409.692 156.72 411.1 159.664C412.508 162.544 413.212 165.968 413.212 169.936V202H406.012L405.532 193.36C404.892 194.704 404.06 195.984 403.036 197.2C402.076 198.352 400.924 199.376 399.58 200.272C398.236 201.168 396.7 201.872 394.972 202.384C393.308 202.896 391.452 203.152 389.404 203.152ZM390.556 196.336C392.668 196.336 394.62 195.856 396.412 194.896C398.204 193.936 399.74 192.656 401.02 191.056C402.364 189.392 403.388 187.536 404.092 185.488C404.796 183.44 405.148 181.296 405.148 179.056V178.096H393.244C390.236 178.096 387.772 178.48 385.852 179.248C383.996 180.016 382.652 181.104 381.82 182.512C380.988 183.856 380.572 185.392 380.572 187.12C380.572 188.976 380.956 190.608 381.724 192.016C382.492 193.36 383.612 194.416 385.084 195.184C386.62 195.952 388.444 196.336 390.556 196.336ZM447.367 203.152C442.887 203.152 438.919 202 435.463 199.696C432.007 197.392 429.319 194.256 427.399 190.288C425.479 186.256 424.519 181.712 424.519 176.656C424.519 171.536 425.479 167.024 427.399 163.12C429.319 159.152 432.007 156.048 435.463 153.808C438.919 151.504 442.919 150.352 447.463 150.352C451.431 150.352 454.823 151.152 457.639 152.752C460.519 154.352 462.791 156.592 464.455 159.472V132.88H472.519V202H465.223L464.551 193.936C463.591 195.536 462.311 197.04 460.711 198.448C459.175 199.856 457.287 201.008 455.047 201.904C452.871 202.736 450.311 203.152 447.367 203.152ZM448.423 196.144C451.623 196.144 454.407 195.376 456.775 193.84C459.143 192.24 460.967 190 462.247 187.12C463.527 184.176 464.167 180.72 464.167 176.752C464.167 172.784 463.527 169.36 462.247 166.48C460.967 163.536 459.143 161.296 456.775 159.76C454.407 158.16 451.623 157.36 448.423 157.36C445.415 157.36 442.727 158.16 440.359 159.76C437.991 161.296 436.135 163.536 434.791 166.48C433.447 169.36 432.775 172.784 432.775 176.752C432.775 180.72 433.447 184.176 434.791 187.12C436.135 190 437.991 192.24 440.359 193.84C442.727 195.376 445.415 196.144 448.423 196.144ZM501.904 203.152C498.064 203.152 494.864 202.448 492.304 201.04C489.744 199.568 487.824 197.648 486.544 195.28C485.264 192.848 484.624 190.256 484.624 187.504C484.624 184.176 485.456 181.36 487.12 179.056C488.848 176.688 491.248 174.896 494.32 173.68C497.392 172.464 500.976 171.856 505.072 171.856H517.648C517.648 168.592 517.264 165.872 516.496 163.696C515.728 161.52 514.48 159.888 512.752 158.8C511.024 157.712 508.72 157.168 505.84 157.168C502.96 157.168 500.496 157.904 498.448 159.376C496.4 160.784 495.12 162.896 494.608 165.712H486.352C486.736 162.384 487.856 159.6 489.712 157.36C491.568 155.056 493.904 153.328 496.72 152.176C499.6 150.96 502.64 150.352 505.84 150.352C510.384 150.352 514.128 151.184 517.072 152.848C520.016 154.448 522.192 156.72 523.6 159.664C525.008 162.544 525.712 165.968 525.712 169.936V202H518.512L518.032 193.36C517.392 194.704 516.56 195.984 515.536 197.2C514.576 198.352 513.424 199.376 512.08 200.272C510.736 201.168 509.2 201.872 507.472 202.384C505.808 202.896 503.952 203.152 501.904 203.152ZM503.056 196.336C505.168 196.336 507.12 195.856 508.912 194.896C510.704 193.936 512.24 192.656 513.52 191.056C514.864 189.392 515.888 187.536 516.592 185.488C517.296 183.44 517.648 181.296 517.648 179.056V178.096H505.744C502.736 178.096 500.272 178.48 498.352 179.248C496.496 180.016 495.152 181.104 494.32 182.512C493.488 183.856 493.072 185.392 493.072 187.12C493.072 188.976 493.456 190.608 494.224 192.016C494.992 193.36 496.112 194.416 497.584 195.184C499.12 195.952 500.944 196.336 503.056 196.336ZM510.544 145.168C508.816 145.168 507.376 144.784 506.224 144.016C505.072 143.248 503.984 142.512 502.96 141.808C502 141.04 500.848 140.656 499.504 140.656C498.48 140.656 497.584 141.008 496.816 141.712C496.112 142.416 495.664 143.504 495.472 144.976H490.768C491.216 141.776 492.24 139.376 493.84 137.776C495.504 136.112 497.52 135.28 499.888 135.28C501.616 135.28 503.024 135.664 504.112 136.432C505.264 137.136 506.352 137.872 507.376 138.64C508.4 139.408 509.584 139.792 510.928 139.792C512.016 139.792 512.912 139.44 513.616 138.736C514.384 137.968 514.864 136.88 515.056 135.472H519.76C519.376 138.608 518.352 141.008 516.688 142.672C515.024 144.336 512.976 145.168 510.544 145.168ZM560.731 203.152C556.059 203.152 551.931 202.064 548.347 199.888C544.763 197.712 541.979 194.64 539.995 190.672C538.011 186.704 537.019 182.064 537.019 176.752C537.019 171.376 538.011 166.736 539.995 162.832C542.043 158.864 544.859 155.792 548.443 153.616C552.091 151.44 556.251 150.352 560.923 150.352C565.659 150.352 569.787 151.44 573.307 153.616C576.891 155.792 579.675 158.864 581.659 162.832C583.643 166.736 584.635 171.376 584.635 176.752C584.635 182.064 583.611 186.704 581.563 190.672C579.579 194.64 576.795 197.712 573.211 199.888C569.627 202.064 565.467 203.152 560.731 203.152ZM560.731 196.24C563.675 196.24 566.331 195.536 568.699 194.128C571.067 192.656 572.923 190.48 574.267 187.6C575.675 184.656 576.379 181.04 576.379 176.752C576.379 172.4 575.707 168.784 574.363 165.904C573.019 163.024 571.163 160.88 568.795 159.472C566.491 158 563.867 157.264 560.923 157.264C558.043 157.264 555.419 158 553.051 159.472C550.683 160.88 548.795 163.024 547.387 165.904C545.979 168.784 545.275 172.4 545.275 176.752C545.275 181.04 545.947 184.656 547.291 187.6C548.699 190.48 550.555 192.656 552.859 194.128C555.227 195.536 557.851 196.24 560.731 196.24Z" fill="white"/>
</svg>
