<svg width="196" height="196" viewBox="0 0 196 196" fill="none" xmlns="http://www.w3.org/2000/svg">
<path fill-rule="evenodd" clip-rule="evenodd" d="M97.8333 8C48.2208 8 8 48.2208 8 97.8333C8 147.446 48.2208 187.667 97.8333 187.667C147.446 187.667 187.667 147.446 187.667 97.8333C187.667 48.2208 147.446 8 97.8333 8ZM93.75 48.8333C91.5841 48.8333 89.5068 49.6938 87.9753 51.2253C86.4438 52.7568 85.5833 54.8341 85.5833 57C85.5833 59.1659 86.4438 61.2432 87.9753 62.7747C89.5068 64.3063 91.5841 65.1667 93.75 65.1667H97.8333C99.9993 65.1667 102.076 64.3063 103.608 62.7747C105.14 61.2432 106 59.1659 106 57C106 54.8341 105.14 52.7568 103.608 51.2253C102.076 49.6938 99.9993 48.8333 97.8333 48.8333H93.75ZM81.5 81.5C79.3341 81.5 77.2568 82.3604 75.7253 83.892C74.1938 85.4235 73.3333 87.5007 73.3333 89.6667C73.3333 91.8326 74.1938 93.9098 75.7253 95.4414C77.2568 96.9729 79.3341 97.8333 81.5 97.8333H89.6667V122.333H81.5C79.3341 122.333 77.2568 123.194 75.7253 124.725C74.1938 126.257 73.3333 128.334 73.3333 130.5C73.3333 132.666 74.1938 134.743 75.7253 136.275C77.2568 137.806 79.3341 138.667 81.5 138.667H114.167C116.333 138.667 118.41 137.806 119.941 136.275C121.473 134.743 122.333 132.666 122.333 130.5C122.333 128.334 121.473 126.257 119.941 124.725C118.41 123.194 116.333 122.333 114.167 122.333H106V89.6667C106 87.5007 105.14 85.4235 103.608 83.892C102.076 82.3604 99.9993 81.5 97.8333 81.5H81.5Z" fill="url(#paint0_linear_62_35)"/>
<defs>
<linearGradient id="paint0_linear_62_35" x1="187.993" y1="153.889" x2="-36.6227" y2="107.633" gradientUnits="userSpaceOnUse">
<stop stop-color="#045DD0"/>
<stop offset="0.695" stop-color="#00DD9E"/>
</linearGradient>
</defs>
</svg>
